<mxfile host="65bd71144e">
    <diagram id="6EU1c-54r2hWyKf3_wE8" name="Page-1">
        <mxGraphModel dx="849" dy="1749" grid="1" gridSize="10" guides="1" tooltips="1" connect="1" arrows="1" fold="1" page="1" pageScale="1" pageWidth="850" pageHeight="1100" math="0" shadow="0">
            <root>
                <mxCell id="0"/>
                <mxCell id="1" parent="0"/>
                <mxCell id="2" value="" style="rounded=1;whiteSpace=wrap;html=1;arcSize=8;" vertex="1" parent="1">
                    <mxGeometry x="160" y="350" width="420" height="160" as="geometry"/>
                </mxCell>
                <mxCell id="3" value="&lt;div&gt;&lt;br&gt;&lt;/div&gt;a = 1" style="rounded=1;whiteSpace=wrap;html=1;arcSize=8;" vertex="1" parent="1">
                    <mxGeometry x="170" y="390" width="190" height="110" as="geometry"/>
                </mxCell>
                <mxCell id="4" value="" style="rounded=1;whiteSpace=wrap;html=1;arcSize=8;" vertex="1" parent="1">
                    <mxGeometry x="380" y="390" width="190" height="110" as="geometry"/>
                </mxCell>
                <mxCell id="5" value="" style="rounded=1;whiteSpace=wrap;html=1;arcSize=8;" vertex="1" parent="1">
                    <mxGeometry x="160" y="160" width="420" height="160" as="geometry"/>
                </mxCell>
                <mxCell id="6" value="&lt;div&gt;&lt;br&gt;&lt;/div&gt;b = 2;&lt;div&gt;c = 3;&lt;/div&gt;" style="rounded=1;whiteSpace=wrap;html=1;arcSize=8;" vertex="1" parent="1">
                    <mxGeometry x="170" y="200" width="190" height="110" as="geometry"/>
                </mxCell>
                <mxCell id="7" value="" style="rounded=1;whiteSpace=wrap;html=1;arcSize=8;" vertex="1" parent="1">
                    <mxGeometry x="380" y="200" width="190" height="110" as="geometry"/>
                </mxCell>
                <mxCell id="8" value="" style="rounded=1;whiteSpace=wrap;html=1;arcSize=8;" vertex="1" parent="1">
                    <mxGeometry x="160" y="-30" width="420" height="160" as="geometry"/>
                </mxCell>
                <mxCell id="9" value="&lt;div&gt;&lt;br&gt;&lt;/div&gt;e = 5" style="rounded=1;whiteSpace=wrap;html=1;arcSize=8;" vertex="1" parent="1">
                    <mxGeometry x="170" y="10" width="190" height="110" as="geometry"/>
                </mxCell>
                <mxCell id="10" value="" style="rounded=1;whiteSpace=wrap;html=1;arcSize=8;" vertex="1" parent="1">
                    <mxGeometry x="380" y="10" width="190" height="110" as="geometry"/>
                </mxCell>
                <mxCell id="11" value="Global Execution Context" style="text;html=1;align=center;verticalAlign=middle;whiteSpace=wrap;rounded=0;" vertex="1" parent="1">
                    <mxGeometry x="295" y="350" width="150" height="30" as="geometry"/>
                </mxCell>
                <mxCell id="12" value="fn1 Execution Context" style="text;html=1;align=center;verticalAlign=middle;whiteSpace=wrap;rounded=0;" vertex="1" parent="1">
                    <mxGeometry x="295" y="170" width="150" height="30" as="geometry"/>
                </mxCell>
                <mxCell id="13" value="fn2 Execution Context" style="text;html=1;align=center;verticalAlign=middle;whiteSpace=wrap;rounded=0;" vertex="1" parent="1">
                    <mxGeometry x="295" y="-30" width="150" height="30" as="geometry"/>
                </mxCell>
                <mxCell id="14" value="Variable Environment" style="text;html=1;align=center;verticalAlign=middle;whiteSpace=wrap;rounded=0;" vertex="1" parent="1">
                    <mxGeometry x="190" y="10" width="150" height="30" as="geometry"/>
                </mxCell>
                <mxCell id="15" value="Lexical Environment" style="text;html=1;align=center;verticalAlign=middle;whiteSpace=wrap;rounded=0;" vertex="1" parent="1">
                    <mxGeometry x="400" y="10" width="150" height="30" as="geometry"/>
                </mxCell>
                <mxCell id="16" value="Variable Environment" style="text;html=1;align=center;verticalAlign=middle;whiteSpace=wrap;rounded=0;" vertex="1" parent="1">
                    <mxGeometry x="190" y="200" width="150" height="30" as="geometry"/>
                </mxCell>
                <mxCell id="17" value="Lexical Environment" style="text;html=1;align=center;verticalAlign=middle;whiteSpace=wrap;rounded=0;" vertex="1" parent="1">
                    <mxGeometry x="400" y="200" width="150" height="30" as="geometry"/>
                </mxCell>
                <mxCell id="18" value="Variable Environment" style="text;html=1;align=center;verticalAlign=middle;whiteSpace=wrap;rounded=0;" vertex="1" parent="1">
                    <mxGeometry x="190" y="390" width="150" height="30" as="geometry"/>
                </mxCell>
                <mxCell id="19" value="Lexical Environment" style="text;html=1;align=center;verticalAlign=middle;whiteSpace=wrap;rounded=0;" vertex="1" parent="1">
                    <mxGeometry x="400" y="390" width="150" height="30" as="geometry"/>
                </mxCell>
                <mxCell id="20" value="&lt;div&gt;&lt;b&gt;fn2 body&lt;/b&gt;&lt;/div&gt;var e = 5;&lt;div&gt;console.log(e);&lt;/div&gt;&lt;div&gt;console.log(b);&lt;/div&gt;&lt;div&gt;console.log(a);&lt;/div&gt;" style="text;html=1;align=left;verticalAlign=middle;whiteSpace=wrap;rounded=0;" vertex="1" parent="1">
                    <mxGeometry x="610" y="-10" width="170" height="130" as="geometry"/>
                </mxCell>
                <mxCell id="23" value="" style="endArrow=classic;html=1;entryX=0.632;entryY=0.545;entryDx=0;entryDy=0;entryPerimeter=0;" edge="1" parent="1" target="9">
                    <mxGeometry width="50" height="50" relative="1" as="geometry">
                        <mxPoint x="609.92" y="56.41" as="sourcePoint"/>
                        <mxPoint x="299.99999999999994" y="52.049999999999955" as="targetPoint"/>
                    </mxGeometry>
                </mxCell>
                <mxCell id="25" value="" style="endArrow=none;dashed=1;html=1;dashPattern=1 3;strokeWidth=2;exitX=0.842;exitY=0.727;exitDx=0;exitDy=0;exitPerimeter=0;" edge="1" parent="1" source="9">
                    <mxGeometry width="50" height="50" relative="1" as="geometry">
                        <mxPoint x="700" y="270" as="sourcePoint"/>
                        <mxPoint x="610" y="70" as="targetPoint"/>
                    </mxGeometry>
                </mxCell>
                <mxCell id="26" value="" style="endArrow=none;dashed=1;html=1;dashPattern=1 3;strokeWidth=2;exitX=0.842;exitY=0.727;exitDx=0;exitDy=0;exitPerimeter=0;entryX=0.632;entryY=0.455;entryDx=0;entryDy=0;entryPerimeter=0;" edge="1" parent="1" target="7">
                    <mxGeometry width="50" height="50" relative="1" as="geometry">
                        <mxPoint x="320" y="90" as="sourcePoint"/>
                        <mxPoint x="600" y="70" as="targetPoint"/>
                    </mxGeometry>
                </mxCell>
                <mxCell id="28" value="" style="endArrow=classic;html=1;entryX=0.632;entryY=0.545;entryDx=0;entryDy=0;entryPerimeter=0;" edge="1" parent="1">
                    <mxGeometry width="50" height="50" relative="1" as="geometry">
                        <mxPoint x="500" y="250" as="sourcePoint"/>
                        <mxPoint x="280" y="256" as="targetPoint"/>
                    </mxGeometry>
                </mxCell>
                <mxCell id="29" value="" style="endArrow=none;dashed=1;html=1;exitX=0.947;exitY=0.818;exitDx=0;exitDy=0;exitPerimeter=0;" edge="1" parent="1" source="9">
                    <mxGeometry width="50" height="50" relative="1" as="geometry">
                        <mxPoint x="566" y="133" as="sourcePoint"/>
                        <mxPoint x="616" y="83" as="targetPoint"/>
                    </mxGeometry>
                </mxCell>
                <mxCell id="30" value="" style="endArrow=none;dashed=1;html=1;exitX=0.947;exitY=0.818;exitDx=0;exitDy=0;exitPerimeter=0;entryX=0.842;entryY=0.636;entryDx=0;entryDy=0;entryPerimeter=0;" edge="1" parent="1" target="7">
                    <mxGeometry width="50" height="50" relative="1" as="geometry">
                        <mxPoint x="350" y="102" as="sourcePoint"/>
                        <mxPoint x="616" y="85" as="targetPoint"/>
                    </mxGeometry>
                </mxCell>
                <mxCell id="31" value="" style="endArrow=none;dashed=1;html=1;exitX=0.947;exitY=0.818;exitDx=0;exitDy=0;exitPerimeter=0;" edge="1" parent="1">
                    <mxGeometry width="50" height="50" relative="1" as="geometry">
                        <mxPoint x="270" y="287" as="sourcePoint"/>
                        <mxPoint x="536" y="270" as="targetPoint"/>
                    </mxGeometry>
                </mxCell>
                <mxCell id="32" value="" style="endArrow=none;dashed=1;html=1;exitX=0.947;exitY=0.818;exitDx=0;exitDy=0;exitPerimeter=0;entryX=0.632;entryY=0.545;entryDx=0;entryDy=0;entryPerimeter=0;" edge="1" parent="1" target="4">
                    <mxGeometry width="50" height="50" relative="1" as="geometry">
                        <mxPoint x="270" y="287" as="sourcePoint"/>
                        <mxPoint x="536" y="270" as="targetPoint"/>
                    </mxGeometry>
                </mxCell>
                <mxCell id="34" value="" style="endArrow=classic;html=1;entryX=0.632;entryY=0.545;entryDx=0;entryDy=0;entryPerimeter=0;" edge="1" parent="1" target="3">
                    <mxGeometry width="50" height="50" relative="1" as="geometry">
                        <mxPoint x="500" y="450" as="sourcePoint"/>
                        <mxPoint x="280" y="456" as="targetPoint"/>
                    </mxGeometry>
                </mxCell>
            </root>
        </mxGraphModel>
    </diagram>
</mxfile>